<svg xmlns="http://www.w3.org/2000/svg" width="400" height="45.575" viewBox="0 0 32000 3646">
  <defs>
    <style>
      .cls-1 {
        fill: #00ff54;
        fill-rule: evenodd;
      }
    </style>
  </defs>
  <path id="Rounded_Rectangle_1_copy" data-name="Rounded Rectangle 1 copy" class="cls-1" d="M677.118,1321.18C2597.93-603.086,4799.01,3389.11,6719.82,1464.85c111.49-111.18,213.55,45.06,229.33,378.26,0.04,0.89.08,1.78,0.13,2.67,15.75,332.57-60.73,716.04-172.22,827.22C4856.25,4597.26,2655.16,605.063,734.351,2529.33c-111.491,111.18-213.543-45.07-229.327-378.27q-0.063-1.335-.127-2.67c-15.754-332.56,60.731-716.03,172.221-827.21"/>
  <path id="Rounded_Rectangle_1_copy_2" data-name="Rounded Rectangle 1 copy 2" class="cls-1" d="M6821.94,1327.75C8742.75-596.519,10943.8,3395.68,12864.6,1471.42c111.5-111.19,213.6,45.06,229.4,378.26,0,0.89.1,1.78,0.1,2.67,15.8,332.57-60.7,716.03-172.2,827.22C11001.1,4603.83,8799.99,611.63,6879.18,2535.89c-111.49,111.19-213.55-45.06-229.33-378.26-0.04-.89-0.08-1.78-0.13-2.67-15.75-332.57,60.73-716.03,172.22-827.21"/>
  <path id="Rounded_Rectangle_1_copy_3" data-name="Rounded Rectangle 1 copy 3" class="cls-1" d="M12991.4,1299.54c1920.9-1924.266,4121.9,2067.93,6042.8,143.67,111.4-111.18,213.5,45.06,229.3,378.27,0,0.88.1,1.77,0.1,2.66,15.8,332.57-60.7,716.04-172.2,827.22-1920.8,1924.26-4121.9-2067.937-6042.7-143.67-111.5,111.18-213.6-45.07-229.3-378.27-0.1-.89-0.1-1.78-0.2-2.67-15.7-332.56,60.8-716.03,172.2-827.21"/>
  <path id="Rounded_Rectangle_1_copy_3-2" data-name="Rounded Rectangle 1 copy 3" class="cls-1" d="M19138.3,1339.56c1920.8-1924.269,4121.9,2067.93,6042.7,143.67,111.5-111.19,213.6,45.06,229.3,378.26,0.1,0.89.1,1.78,0.2,2.67,15.7,332.57-60.8,716.03-172.2,827.21-1920.9,1924.27-4121.9-2067.93-6042.8-143.67-111.4,111.19-213.5-45.06-229.3-378.26,0-.89-0.1-1.78-0.1-2.67-15.8-332.57,60.7-716.03,172.2-827.21"/>
  <path id="Rounded_Rectangle_1_copy_4" data-name="Rounded Rectangle 1 copy 4" class="cls-1" d="M25303.9,1349.53c1920.9-1924.26,4121.9,2067.94,6042.7,143.67,111.5-111.18,213.6,45.07,229.4,378.27,0,0.89.1,1.78,0.1,2.67,15.8,332.57-60.7,716.03-172.2,827.21C29483.1,4625.62,27282,633.419,25361.2,2557.68c-111.5,111.18-213.6-45.06-229.3-378.26-0.1-.89-0.1-1.78-0.2-2.67-15.7-332.57,60.8-716.03,172.2-827.22"/>
</svg>
